<svg width="186" height="165" viewBox="0 0 186 165" fill="none" xmlns="http://www.w3.org/2000/svg">
<g clip-path="url(#clip0_3_397)">
<mask id="mask0_3_397" style="mask-type:alpha" maskUnits="userSpaceOnUse" x="78" y="4" width="104" height="89">
<path d="M181.273 4.57031H78.0273V92.1233H181.273V4.57031Z" fill="white"/>
</mask>
<g mask="url(#mask0_3_397)">
<path d="M174.303 -1.76562H84.9966C81.1473 -1.76562 78.0273 1.35471 78.0273 5.20383V78.8178C78.0273 82.6671 81.1473 85.7871 84.9966 85.7871H174.303C178.152 85.7871 181.273 82.6667 181.273 78.8178V5.20383C181.273 1.3547 178.152 -1.76562 174.303 -1.76562Z" fill="#F7F7F7"/>
<path d="M103.359 71.7243C144.824 71.7243 155.245 38.3014 159.845 23.1953" stroke="#B5E2F7" stroke-width="1.94466" stroke-linecap="round" stroke-linejoin="round"/>
<path fill-rule="evenodd" clip-rule="evenodd" d="M156.386 24.0738C155.97 23.9626 155.724 23.5359 155.835 23.1208C155.871 22.9871 155.942 22.8653 156.041 22.7681L160.56 18.3179C160.867 18.0161 161.36 18.0195 161.662 18.3255C161.755 18.4201 161.823 18.537 161.858 18.6652L163.543 24.7748C163.657 25.1891 163.413 25.6176 162.998 25.7317C162.865 25.7685 162.724 25.769 162.59 25.7332" fill="#B5E2F7"/>
<path d="M96.6248 74.8751H167.146C167.577 74.8751 167.926 75.2237 167.926 75.6536C167.926 76.0831 167.577 76.4318 167.146 76.4318H95.8454C95.4151 76.4318 95.0664 76.0831 95.0664 75.6536V16.0673C95.0664 15.6375 95.4151 15.2891 95.8454 15.2891C96.2757 15.2891 96.6248 15.6375 96.6248 16.0673V74.8751Z" fill="#E5E5E5"/>
</g>
<path d="M181.995 0.875H77.581C75.6445 0.875 74.0742 2.44295 74.0742 4.37712V5.15535C74.0742 7.08952 75.6445 8.65747 77.581 8.65747H181.995C183.931 8.65747 185.501 7.08952 185.501 5.15535V4.37712C185.501 2.44295 183.931 0.875 181.995 0.875Z" fill="#1CB0F6"/>
<path d="M47.7469 132.888C47.7469 130.939 46.1726 129.43 44.284 129.43H38.8692C36.9803 129.43 35.4062 131.002 35.4062 132.888C35.4062 134.838 36.9803 136.347 38.8692 136.347H44.284C46.1726 136.41 47.7469 134.838 47.7469 132.888Z" fill="#F49000"/>
<path d="M61.7899 136.346C63.4902 136.346 64.9382 135.152 65.19 133.453C65.5047 131.567 64.2453 129.743 62.3568 129.429C61.979 129.366 61.4753 128.926 60.9084 128.234C59.7122 126.725 57.5714 126.411 55.9975 127.605C54.4863 128.8 54.1717 130.938 55.3678 132.51C57.0677 134.648 59.0198 135.969 61.1602 136.283C61.4121 136.346 61.6012 136.346 61.7899 136.346Z" fill="#F49000"/>
<path d="M5.69152 112.767L29.8689 80.5703C31.191 78.8724 33.7725 78.8724 35.0317 80.6334C41.0131 89.1225 40.8242 100.63 34.4021 109.183C27.98 117.735 16.9617 121.068 7.13965 117.672C5.12483 116.98 4.36931 114.528 5.69152 112.767Z" fill="#4B4B4B"/>
<path fill-rule="evenodd" clip-rule="evenodd" d="M7.45326 110.375L13.9383 118.927C11.6717 118.864 9.40507 118.424 7.13843 117.67C5.12366 116.978 4.36811 114.462 5.62734 112.764L7.45326 110.375Z" fill="#58CC02"/>
<path d="M47.3705 95.5366L82.1883 75.0361C84.0772 73.9043 86.4699 74.9733 86.9105 77.1113C89.1773 87.2358 84.581 97.8633 75.3884 103.334C66.1962 108.805 54.6741 107.673 46.8668 100.756C45.2297 99.2465 45.4816 96.6684 47.3705 95.5366Z" fill="#4B4B4B"/>
<path d="M78.8867 82.7929L108.276 49.0859" stroke="#A56644" stroke-width="2.00674" stroke-linecap="round"/>
<path d="M52.7848 59.5665C46.5518 63.9684 42.1446 66.421 39.563 66.987C37.0445 67.5531 32.0705 67.0498 24.704 65.6034C19.793 64.6604 15.0708 67.8046 14.1264 72.7093C13.8745 73.9042 13.8745 75.1619 14.1264 76.2941L19.9818 103.774C23.067 118.301 37.3593 127.608 51.9037 124.526C66.4477 121.445 75.7031 107.17 72.6179 92.581L66.7623 65.0378C65.7553 60.1326 60.9072 57.0512 56.059 58.0574C54.8629 58.372 53.7922 58.8122 52.7848 59.5665Z" fill="#58CC02"/>
<path d="M34.7792 73.2761L26.783 67.4278C26.2793 67.0505 25.5238 67.3023 25.3349 67.868C24.8312 69.3775 24.8942 70.9494 25.3978 72.3958L22.6905 70.5093C22.1868 70.1319 21.4313 70.3833 21.2424 70.9494C20.8016 72.3958 20.8016 73.9681 21.2424 75.3513C19.0387 77.8038 18.0313 81.1995 18.7239 84.721L19.9202 90.1919C21.1164 95.9146 26.783 99.6248 32.5126 98.3671L32.7644 98.304C36.9828 97.4237 40.068 94.0908 40.9494 90.1291C41.7681 89.9404 42.9642 89.689 44.5382 89.3743C45.231 89.2488 46.364 88.9974 47.9383 88.6827C50.3306 91.9529 54.4863 93.7134 58.7048 92.8331L59.0194 92.7704C64.7491 91.5755 68.4007 85.916 67.2046 80.1933L66.0084 74.7224C65.2528 71.2009 62.8601 68.4968 59.8378 67.1764C59.6491 65.73 59.0826 64.2837 58.0752 63.2147C57.6342 62.7118 56.8786 62.8373 56.564 63.4034L54.8641 66.2961C54.7382 64.787 54.1085 63.2774 53.1011 62.1457C52.6605 61.6428 52.0936 61.7056 51.779 62.2716L46.364 71.4527C46.3012 71.5155 46.3012 71.5782 46.238 71.641C43.9085 74.9111 38.9976 75.8546 35.2829 73.7162C35.094 73.4648 34.9681 73.402 34.7792 73.2761Z" fill="#89E219"/>
<path d="M53.6675 70.3179C49.7008 71.1354 47.1195 75.0971 48.001 79.0588L48.9453 83.3979C49.764 87.4856 53.6675 90.0009 57.6341 89.1834C61.6007 88.3658 64.1821 84.4041 63.3006 80.4424L62.3563 76.1033C61.5376 72.0157 57.6341 69.5004 53.6675 70.3179Z" fill="white"/>
<path d="M53.5426 75.3491C51.6536 75.7261 50.4574 77.6126 50.8352 79.4991L51.6536 83.2093C52.0314 85.0958 53.9204 86.2908 55.8093 85.9134C57.6979 85.536 58.8944 83.6495 58.5166 81.763L57.6979 78.0531C57.2573 76.1035 55.4315 74.9085 53.5426 75.3491Z" fill="#4B4B4B"/>
<path d="M51.5129 80.3559C50.2609 80.3559 49.2461 79.3423 49.2461 78.092C49.2461 76.8417 50.2609 75.8281 51.5129 75.8281C52.7648 75.8281 53.7796 76.8417 53.7796 78.092C53.7796 79.3423 52.7648 80.3559 51.5129 80.3559Z" fill="white"/>
<path d="M28.2964 75.7271C24.3298 76.5446 21.7484 80.5064 22.6299 84.4681L23.5743 88.8071C24.4557 92.8316 28.3594 95.347 32.326 94.5298C36.2926 93.7123 38.874 89.7506 37.9925 85.7889L37.0481 81.4498C36.1667 77.4253 32.263 74.8468 28.2964 75.7271Z" fill="white"/>
<path d="M30.4371 80.2552C28.5483 80.6326 27.352 82.5191 27.7298 84.4056L28.5483 88.1159C28.926 90.0024 30.8149 91.1973 32.7038 90.8199C34.5926 90.4425 35.7889 88.556 35.4111 86.6695L34.5926 82.9592C34.1519 81.01 32.326 79.8151 30.4371 80.2552Z" fill="#4B4B4B"/>
<path d="M28.4776 85.2075C27.2258 85.2075 26.2109 84.1939 26.2109 82.9436C26.2109 81.6933 27.2258 80.6797 28.4776 80.6797C29.7294 80.6797 30.7442 81.6933 30.7442 82.9436C30.7442 84.1939 29.7294 85.2075 28.4776 85.2075Z" fill="white"/>
<path d="M56.8771 90.8876C58.6401 89.7555 60.7809 88.7493 63.4251 87.9322C64.8735 87.4916 65.755 85.9825 65.3772 84.4734L64.1807 79.8828C58.1996 81.3919 53.4773 83.6558 50.2031 86.5486L53.7292 90.5103C54.4848 91.4533 55.87 91.5792 56.8771 90.8876Z" fill="#8EE000"/>
<path d="M36.796 94.7183L38.5589 89.0588C34.3405 87.7379 29.1146 87.6124 23.0703 88.6186L24.0148 94.0267C24.2037 95.1584 25.274 95.9132 26.4073 95.7873C29.6813 95.3471 32.5146 95.4099 34.9072 95.9132C35.7257 96.0387 36.5441 95.5358 36.796 94.7183Z" fill="#8EE000"/>
<path d="M43.0904 83.4051C41.0757 83.8452 39.7535 85.8576 40.1942 87.8701L40.4461 89.0646C40.8868 91.077 42.9017 92.3974 44.9162 91.9573C46.9311 91.5172 48.2531 89.5047 47.8126 87.4927L47.5607 86.2978C47.1202 84.2853 45.1053 82.9649 43.0904 83.4051Z" fill="#F49000"/>
<path d="M49.0717 86.2276C48.1274 84.0264 45.6088 82.8315 43.0902 83.3976C40.6977 83.9009 38.9348 86.0389 38.9977 88.3655L39.0607 88.5542C39.1237 88.7429 39.1866 88.7429 39.3126 88.7429L44.2235 88.5542C44.3495 88.5542 44.3495 88.5542 44.4127 88.4915L49.0085 86.6677C49.1976 86.6677 49.1976 86.6049 49.1976 86.4163L49.0717 86.2276Z" fill="#FFC200"/>
<path d="M42.3966 86.0437C42.5225 86.0437 42.6484 85.981 42.7744 85.9182C43.3413 85.5408 43.9077 85.4149 44.5374 85.5408C44.9784 85.6036 45.3557 85.3521 45.4189 84.912C45.4817 84.4718 45.2302 84.0945 44.7893 84.0317C43.845 83.843 42.9003 84.0317 42.0188 84.5978C41.6414 84.7861 41.5782 85.2894 41.7673 85.6036C41.8933 85.9182 42.1447 86.0437 42.3966 86.0437Z" fill="#FFDE00"/>
<path d="M70.1128 88.8828L73.2541 103.645L23.372 114.234L20.2305 99.4725L70.1128 88.8828Z" fill="white"/>
<path fill-rule="evenodd" clip-rule="evenodd" d="M49.1955 93.3359L41.1992 95.0338C41.514 96.4174 42.8362 97.2349 44.1586 96.9834L47.2438 96.3546C48.6286 96.04 49.4473 94.7195 49.1955 93.3359Z" fill="#4B4B4B"/>
<path fill-rule="evenodd" clip-rule="evenodd" d="M46.8681 94.4688L43.783 95.0976L43.2165 100.883C43.0274 102.769 44.4126 104.467 46.3643 104.656C46.7421 104.719 47.0568 104.656 47.4346 104.593C49.3235 104.216 50.5197 102.329 50.0791 100.505C50.0164 100.191 49.8904 99.8136 49.7013 99.4994L46.8681 94.4688Z" fill="#4B4B4B"/>
<path fill-rule="evenodd" clip-rule="evenodd" d="M70.8546 81.7043L47.2439 102.393L18.4704 96.3562C18.1556 96.2931 17.7778 96.4818 17.7148 96.8591C17.7148 96.9223 17.7148 96.9851 17.7148 97.1106L21.6185 123.333C21.8074 124.717 23.1296 125.66 24.4518 125.471C24.5147 125.471 24.5147 125.471 24.5777 125.471L72.9954 115.661C74.2547 115.41 75.1362 114.215 75.0103 112.957L71.9252 82.1445C71.862 81.8298 71.6101 81.5156 71.2323 81.5784C71.1064 81.5784 70.9805 81.6411 70.8546 81.7043Z" fill="#4B4B4B"/>
<path fill-rule="evenodd" clip-rule="evenodd" d="M68.1497 104.656L59.8386 105.977C59.7759 105.977 59.7127 105.977 59.6499 105.977C58.9571 105.977 58.3906 105.411 58.3906 104.719L58.6425 92.4569L69.5349 82.8984C69.5349 82.9612 69.5977 83.0244 69.5977 83.0871L69.2831 103.399C69.2199 104.027 68.7793 104.531 68.1497 104.656Z" fill="#1899D6"/>
<path fill-rule="evenodd" clip-rule="evenodd" d="M32.1987 112.831C32.1987 113.459 31.695 113.963 31.0654 114.025L23.0063 114.843C22.3137 114.906 21.6841 114.403 21.6211 113.711C21.6211 113.648 21.6211 113.585 21.6211 113.585L21.8729 97.0469L32.5135 99.2476L32.1987 112.831Z" fill="#1899D6"/>
<path fill-rule="evenodd" clip-rule="evenodd" d="M42.5648 48.541L30.2243 51.1819C29.9095 51.2451 29.6577 51.5593 29.7207 51.9367L33.1206 67.909C33.1836 68.2236 33.4983 68.4751 33.8761 68.4123L46.2168 65.771C46.5314 65.7083 46.7833 65.3937 46.7205 65.0167L43.3204 49.0439C43.2576 48.7297 42.9426 48.4779 42.5648 48.541Z" fill="#4B4B4B"/>
<path fill-rule="evenodd" clip-rule="evenodd" d="M35.5752 47.4729L26.6346 49.3594C26.1309 49.4849 25.8161 49.9882 25.8791 50.4911C26.005 50.9945 26.5087 51.3087 27.0124 51.2459L35.953 49.3594C36.4566 49.2335 36.7715 48.7306 36.7085 48.2272C36.6455 47.6616 36.1419 47.347 35.5752 47.4729Z" fill="#FFD900"/>
<path fill-rule="evenodd" clip-rule="evenodd" d="M49.4267 45.8333L22.3529 51.5556C21.4715 51.7443 20.9678 52.5618 21.1567 53.4421C21.3456 54.3224 22.1641 54.8257 23.0455 54.637L50.1191 48.9147C51.0006 48.726 51.5043 47.9085 51.3152 47.0282C51.1265 46.2107 50.245 45.6446 49.4267 45.8333Z" fill="#4B4B4B"/>
<path fill-rule="evenodd" clip-rule="evenodd" d="M35.1967 45.6488C34.3152 45.8375 33.8115 46.655 34.0004 47.5353L34.2523 48.793C34.4412 49.6733 35.2597 50.1766 36.1411 49.9879C37.0226 49.7992 37.5263 48.9817 37.3374 48.1014L37.0856 46.8437C36.8967 45.9634 36.0781 45.4601 35.1967 45.6488Z" fill="#4B4B4B"/>
<path fill-rule="evenodd" clip-rule="evenodd" d="M26.4556 54.0666C24.8979 53.2901 23.0375 53.8881 22.2133 55.4067L19.9572 59.8947C19.8081 60.179 19.8943 60.5723 20.2273 60.7614L24.7141 63.02C24.9982 63.1689 25.3917 63.0832 25.5803 62.7501L27.8365 58.2621C28.5722 56.753 28.0133 54.8427 26.4556 54.0666Z" fill="#FFD900"/>
<path d="M24.0981 62.77L22.9609 62.1739L24.3339 59.4814C24.4831 59.1975 24.8676 59.0228 25.2008 59.2115C25.4851 59.3604 25.6598 59.7443 25.471 60.0774L24.0981 62.77Z" fill="#FFC800"/>
<path d="M21.3047 61.3184L23.8315 56.4029C23.9807 56.1191 24.3652 55.9447 24.6985 56.1334C24.9827 56.2823 25.1574 56.6663 24.9686 56.999L22.4418 61.9144L21.3047 61.3184Z" fill="#FFC800"/>
<path fill-rule="evenodd" clip-rule="evenodd" d="M27.8322 50.2356L25.9433 50.0469L24.6211 55.5181L26.447 55.9583L27.8322 50.2356Z" fill="#FFD900"/>
<path d="M19.1413 58.9201C20.5895 58.9201 21.9117 58.0394 23.1079 56.3416C23.2968 56.0274 23.2339 55.65 22.982 55.4613C22.6672 55.2726 22.2894 55.3354 22.1006 55.5872C21.1561 56.9704 20.1487 57.6624 19.1413 57.6624C18.7636 57.6624 18.5117 57.9139 18.5117 58.2913C18.5117 58.6682 18.8265 58.9201 19.1413 58.9201Z" fill="#FFD900"/>
<path fill-rule="evenodd" clip-rule="evenodd" d="M86.3058 72.6809L83.4344 72.5948C82.1989 72.5579 81.1673 73.5226 81.1299 74.75C81.1225 74.9936 81.1554 75.2373 81.228 75.4707L83.539 82.9371C83.8774 84.0295 85.0436 84.6432 86.1438 84.3068C86.9342 84.0656 87.5065 83.3822 87.6012 82.5655L88.4614 75.1577C88.6029 73.9378 87.7222 72.8352 86.4945 72.6945C86.4318 72.6871 86.3686 72.6826 86.3058 72.6809Z" fill="#58CC02"/>
<path d="M84.614 158.078H23.4035C22.0718 158.078 20.9922 159.158 20.9922 160.489C20.9922 161.821 22.0718 162.901 23.4035 162.901H84.614C85.9457 162.901 87.0253 161.821 87.0253 160.489C87.0253 159.158 85.9457 158.078 84.614 158.078Z" fill="#E5E5E5"/>
<path d="M20.9922 148.933V155.309C20.9922 156.838 19.7524 158.078 18.2229 158.078H-16.6139C-18.1433 158.078 -19.3831 156.838 -19.3831 155.309V148.933C-19.3831 147.404 -18.1433 146.164 -16.6139 146.164H18.2229C19.7524 146.164 20.9922 147.404 20.9922 148.933Z" fill="#A560E8"/>
<mask id="mask1_3_397" style="mask-type:alpha" maskUnits="userSpaceOnUse" x="35" y="136" width="41" height="13">
<path d="M75.3789 139.175V145.551C75.3789 147.08 74.1391 148.32 72.6097 148.32H37.7728C36.2434 148.32 35.0036 147.08 35.0036 145.551V139.175C35.0036 137.646 36.2434 136.406 37.7728 136.406H72.6097C74.1391 136.406 75.3789 137.646 75.3789 139.175Z" fill="white"/>
</mask>
<g mask="url(#mask1_3_397)">
<path d="M46.7072 141.907C47.0868 141.907 47.3945 142.214 47.3945 142.594C47.3945 142.974 47.0868 143.281 46.7072 143.281H38.4469C38.0673 143.281 37.7595 142.974 37.7595 142.594C37.7595 142.214 38.0673 141.907 38.4469 141.907H46.7072Z" fill="#B77FEC"/>
<path d="M51.2931 141.907C51.6727 141.907 51.9805 142.214 51.9805 142.594C51.9805 142.974 51.6727 143.281 51.2931 143.281H49.4562C49.0765 143.281 48.7688 142.974 48.7688 142.594C48.7688 142.214 49.0765 141.907 49.4562 141.907H51.2931Z" fill="#B77FEC"/>
<path d="M70.5626 141.907C70.9423 141.907 71.25 142.214 71.25 142.594C71.25 142.974 70.9423 143.281 70.5626 143.281H65.514C65.1344 143.281 64.8266 142.974 64.8266 142.594C64.8266 142.214 65.1344 141.907 65.514 141.907H70.5626Z" fill="#B77FEC"/>
</g>
<path d="M34.957 128.472V133.473C34.957 135.002 33.7172 136.242 32.1878 136.242H-14.5783C-16.1077 136.242 -17.3475 135.002 -17.3475 133.473V128.472C-17.3475 126.942 -16.1077 125.703 -14.5783 125.703H32.1878C33.7172 125.703 34.957 126.942 34.957 128.472Z" fill="#00A0F5"/>
<path opacity="0.25" d="M37.9883 147.632V158.172H33.859V147.632H37.9883Z" fill="white"/>
<path opacity="0.25" d="M74.2344 147.632V158.172H65.517V147.632H74.2344Z" fill="white"/>
</g>
<defs>
<clipPath id="clip0_3_397">
<rect width="185" height="162.029" fill="white" transform="translate(0.5 0.875)"/>
</clipPath>
</defs>
</svg>
