<svg width="246" height="163" viewBox="0 0 246 163" fill="none" xmlns="http://www.w3.org/2000/svg">
<path d="M215.719 0.84375H29.8801C24.527 0.84375 20.1875 5.18327 20.1875 10.5363V142.602C20.1875 147.955 24.527 152.295 29.8801 152.295H215.719C221.072 152.295 225.411 147.955 225.411 142.602V10.5363C225.411 5.18327 221.072 0.84375 215.719 0.84375Z" fill="#5C5B5B"/>
<path d="M204.621 13.5156H39.3654C36.6891 13.5156 34.5195 15.6852 34.5195 18.3615V134.764C34.5195 137.44 36.6891 139.61 39.3654 139.61H204.621C207.297 139.61 209.466 137.44 209.466 134.764V18.3615C209.466 15.6852 207.297 13.5156 204.621 13.5156Z" fill="white"/>
<path d="M34.5977 110.869H209.92V134.809C209.92 136.094 209.409 137.327 208.5 138.236C207.591 139.145 206.359 139.656 205.073 139.656H39.4444C38.8078 139.656 38.1775 139.53 37.5894 139.287C37.0013 139.043 36.467 138.686 36.0169 138.236C35.5668 137.786 35.2099 137.251 34.9663 136.663C34.7228 136.075 34.5975 135.445 34.5977 134.808V110.867V110.869Z" fill="#70D700"/>
<path d="M72.0117 125.096L75.3387 128.386C75.4551 128.502 75.6122 128.566 75.7759 128.566C75.9397 128.566 76.0968 128.502 76.2131 128.386L82.5645 122.102" stroke="white" stroke-width="2.79531" stroke-linecap="round"/>
<path d="M176.397 33.8281H73.4518C71.5972 33.8281 70.0938 35.3316 70.0938 37.1862V37.1871C70.0938 39.0417 71.5972 40.5452 73.4518 40.5452H176.397C178.252 40.5452 179.755 39.0417 179.755 37.1871V37.1862C179.755 35.3316 178.252 33.8281 176.397 33.8281Z" fill="#D2E4E8"/>
<path d="M106.068 33.8281H73.4518C71.5972 33.8281 70.0938 35.3316 70.0938 37.1862V37.1871C70.0938 39.0417 71.5972 40.5452 73.4518 40.5452H106.068C107.923 40.5452 109.426 39.0417 109.426 37.1871V37.1862C109.426 35.3316 107.923 33.8281 106.068 33.8281Z" fill="#70D700"/>
<path d="M2.11558 147.695H243.485C243.697 147.695 243.907 147.737 244.103 147.818C244.3 147.9 244.478 148.019 244.628 148.169C244.778 148.319 244.897 148.497 244.978 148.693C245.059 148.889 245.101 149.1 245.101 149.312V154.97C245.101 158.987 241.846 162.244 237.83 162.244H7.77011C3.75513 162.244 0.5 158.987 0.5 154.97V149.312C0.499884 149.1 0.541586 148.889 0.622724 148.693C0.703862 148.497 0.822847 148.319 0.972879 148.169C1.12291 148.019 1.30105 147.9 1.49712 147.818C1.69319 147.737 1.90334 147.695 2.11558 147.695Z" fill="#C1C9CB"/>
<path opacity="0.25" d="M273.723 -39.2578V95.1904L45.5898 -39.2578H273.723Z" fill="white"/>
<path opacity="0.4" d="M147.755 121.945H92.1147C91.32 121.945 90.6758 122.59 90.6758 123.384V123.385C90.6758 124.18 91.32 124.824 92.1147 124.824H147.755C148.55 124.824 149.194 124.18 149.194 123.385V123.384C149.194 122.59 148.55 121.945 147.755 121.945Z" fill="white"/>
<path opacity="0.4" d="M119.935 127.703H92.1147C91.32 127.703 90.6758 128.347 90.6758 129.142V129.143C90.6758 129.938 91.32 130.582 92.1147 130.582H119.935C120.729 130.582 121.374 129.938 121.374 129.143V129.142C121.374 128.347 120.729 127.703 119.935 127.703Z" fill="white"/>
</svg>
