<svg width="162" height="145" viewBox="0 0 162 145" fill="none" xmlns="http://www.w3.org/2000/svg">
<g clip-path="url(#clip0_3_10)">
<path fill-rule="evenodd" clip-rule="evenodd" d="M51.4648 137.27C51.4648 133.189 54.7945 129.859 58.876 129.859H70.476C74.5574 129.859 77.8871 133.189 77.8871 137.27C77.8871 141.352 74.5574 144.682 70.476 144.682H58.876C54.7945 144.682 51.4648 141.352 51.4648 137.27Z" fill="#F49000"/>
<path fill-rule="evenodd" clip-rule="evenodd" d="M83.4727 137.27C83.4727 133.189 86.8023 129.859 90.8838 129.859H102.484C106.565 129.859 109.895 133.189 109.895 137.27C109.895 141.352 106.565 144.682 102.484 144.682H90.8838C86.8023 144.682 83.4727 141.352 83.4727 137.27Z" fill="#F49000"/>
<path d="M1.51854 109.233L43.3 33.6186C45.5556 29.6446 51.0334 29.0001 54.1482 32.3297C69.2926 48.5483 72.3 73.1445 61.3445 93.1223C50.3889 113.1 27.9408 123.519 6.13706 119.222C1.62595 118.363 -0.737012 113.315 1.51854 109.233Z" fill="#58CC02"/>
<path d="M159.839 109.231L118.057 33.6158C115.802 29.5343 110.324 28.8898 107.102 32.2195C91.9572 48.438 88.9498 73.0343 99.9054 93.0121C110.861 112.99 133.309 123.408 155.113 119.112C159.731 118.36 162.094 113.312 159.839 109.231Z" fill="#58CC02"/>
<path fill-rule="evenodd" clip-rule="evenodd" d="M49.8519 2.14433C64.8889 8.48137 75.2 11.7036 80.7852 11.7036C86.3704 11.7036 96.4667 8.58877 111.289 2.25174C121.063 -1.93715 132.448 2.68137 136.637 12.4554C137.604 14.8184 138.141 17.3962 138.141 19.974V80.0147C138.141 111.807 112.363 137.585 80.5704 137.585C48.7778 137.478 23 111.807 23 80.0147V19.8666C23 9.23322 31.5926 0.640625 42.3333 0.640625C44.9111 0.640625 47.3815 1.17766 49.8519 2.14433Z" fill="#58CC02"/>
<path d="M76.274 98.2791C76.4888 97.5273 75.9518 96.8828 75.1999 96.8828H60.6999C59.9481 96.8828 59.411 97.6347 59.6259 98.2791C60.8073 101.609 64.137 103.972 67.8962 103.972C71.6555 103.972 75.0925 101.609 76.274 98.2791ZM100.441 96.8828H85.9407C85.1888 96.8828 84.6518 97.6347 84.8666 98.2791C86.0481 101.609 89.3777 103.972 93.137 103.972C96.8962 103.972 100.333 101.609 101.515 98.2791C101.73 97.6347 101.193 96.8828 100.441 96.8828ZM87.7666 109.02H73.2666C72.5148 109.02 71.9777 109.772 72.1925 110.416C73.374 113.746 76.7036 116.109 80.4629 116.109C84.2222 116.109 87.6592 113.746 88.8407 110.416C89.1629 109.772 88.6259 109.02 87.7666 109.02Z" fill="#89E219"/>
<path d="M53.1826 11.1681L70.5826 30.0718C71.5493 31.0385 71.1196 32.6496 69.9382 33.2941C63.9233 35.9792 56.8345 34.4755 52.3233 29.4274C47.8122 24.3792 47.0604 17.1829 50.2826 11.4903C51.0345 10.3089 52.2159 10.2015 53.1826 11.1681Z" fill="#89E219"/>
<path fill-rule="evenodd" clip-rule="evenodd" d="M68.2205 27.7095C74.5575 34.1539 85.7279 34.1539 92.7094 27.7095C99.6909 21.265 91.6353 65.0873 91.6353 64.8724C91.6353 64.8724 87.8761 64.765 80.3575 64.8724C78.3168 64.8724 74.665 64.8724 69.5094 64.8724C64.4613 35.8724 64.0316 23.4132 68.2205 27.7095Z" fill="#89E219"/>
<path d="M43.6256 15.6821L60.596 34.6932C61.5626 35.6599 61.133 37.271 59.9515 37.9154C53.9367 40.6006 46.8478 39.0969 42.3367 34.0488C37.8256 29.0006 37.0737 21.8043 40.4034 16.1117C41.0478 14.8228 42.6589 14.7154 43.6256 15.6821Z" fill="#89E219"/>
<path fill-rule="evenodd" clip-rule="evenodd" d="M51.5731 20.9453H52.2176C64.7842 20.9453 74.8805 31.149 74.8805 43.6083V55.6379C74.8805 68.2046 64.6768 78.3009 52.2176 78.3009H51.5731C39.0065 78.3009 28.9102 68.0972 28.9102 55.6379V43.7157C28.9102 31.149 39.0065 20.9453 51.5731 20.9453Z" fill="#89E219"/>
<path d="M107.747 11.1681L90.6692 30.0718C89.7025 31.0385 90.1322 32.6496 91.3136 33.2941C97.3285 35.9792 104.417 34.4755 108.928 29.4274C113.44 24.3792 114.191 17.1829 110.862 11.4903C110.217 10.3089 108.606 10.2015 107.747 11.1681Z" fill="#89E219"/>
<path d="M117.63 15.6821L100.552 34.6932C99.5854 35.6599 100.015 37.271 101.196 37.9154C107.211 40.6006 114.3 39.0969 118.811 34.0488C123.322 29.0006 124.074 21.8043 120.745 16.1117C120.208 14.8228 118.596 14.7154 117.63 15.6821Z" fill="#89E219"/>
<path fill-rule="evenodd" clip-rule="evenodd" d="M108.82 20.9453H109.465C122.031 20.9453 132.127 31.149 132.127 43.6083V55.6379C132.127 68.2046 121.924 78.3009 109.465 78.3009H108.927C96.4682 78.3009 86.3719 68.2046 86.2645 55.7453L86.1571 43.7157C86.0497 31.149 96.146 20.9453 108.82 20.9453Z" fill="#89E219"/>
<path fill-rule="evenodd" clip-rule="evenodd" d="M80.6806 55.7422C85.0843 55.7422 88.7361 59.394 88.7361 63.7977V66.3755C88.7361 70.7792 85.0843 74.4311 80.6806 74.4311C76.2769 74.4311 72.625 70.7792 72.625 66.3755V63.7977C72.625 59.394 76.2769 55.7422 80.6806 55.7422Z" fill="#F49000"/>
<path d="M69.5117 64.3348C70.4784 59.394 75.2043 55.7422 80.7895 55.7422C86.0525 55.7422 90.671 59.5014 91.6376 64.3348V64.7644C91.6376 65.0866 91.5302 65.3014 91.208 65.194L80.7895 67.02C80.5747 67.02 80.5747 67.02 80.3599 67.02L69.9413 65.194C69.6191 65.194 69.5117 65.0866 69.5117 64.7644V64.3348Z" fill="#FFC200"/>
<path d="M83.0449 61.0088C82.8301 61.0088 82.7227 61.0088 82.5078 60.9014C81.1115 60.3644 79.8227 60.3644 78.6412 60.9014C77.7819 61.2236 76.9227 60.794 76.6004 60.0421C76.2782 59.1829 76.7078 58.3236 77.4597 58.0014C79.393 57.2495 81.4338 57.2495 83.5819 58.0014C84.4412 58.3236 84.8708 59.1829 84.5486 60.0421C84.3338 60.5792 83.6893 61.0088 83.0449 61.0088Z" fill="#FFDE00"/>
<path fill-rule="evenodd" clip-rule="evenodd" d="M52.7537 29.1016C61.4537 29.1016 68.5426 36.1904 68.5426 44.8904V54.4497C68.5426 63.1497 61.4537 70.2386 52.7537 70.2386C44.0537 70.2386 36.9648 63.1497 36.9648 54.4497V44.8904C36.9648 36.1904 44.0537 29.1016 52.7537 29.1016Z" fill="white"/>
<path fill-rule="evenodd" clip-rule="evenodd" d="M55.2236 38.125C59.3051 38.125 62.6347 41.4546 62.6347 45.5361V53.6991C62.6347 57.7806 59.3051 61.1102 55.2236 61.1102C51.1421 61.1102 47.8125 57.7806 47.8125 53.6991V45.5361C47.8125 41.4546 51.1421 38.125 55.2236 38.125Z" fill="#4B4B4B"/>
<path d="M48.9935 47.362C51.6629 47.362 53.8268 45.198 53.8268 42.5286C53.8268 39.8593 51.6629 37.6953 48.9935 37.6953C46.3241 37.6953 44.1602 39.8593 44.1602 42.5286C44.1602 45.198 46.3241 47.362 48.9935 47.362Z" fill="white"/>
<path fill-rule="evenodd" clip-rule="evenodd" d="M108.285 29.1016C116.985 29.1016 124.074 36.1904 124.074 44.8904V54.4497C124.074 63.1497 116.985 70.2386 108.285 70.2386C99.585 70.2386 92.4961 63.1497 92.4961 54.4497V44.8904C92.4961 36.1904 99.585 29.1016 108.285 29.1016Z" fill="white"/>
<path fill-rule="evenodd" clip-rule="evenodd" d="M105.813 38.125C109.895 38.125 113.225 41.4546 113.225 45.5361V53.6991C113.225 57.7806 109.895 61.1102 105.813 61.1102C101.732 61.1102 98.4023 57.7806 98.4023 53.6991V45.5361C98.4023 41.4546 101.732 38.125 105.813 38.125Z" fill="#4B4B4B"/>
<path d="M98.724 47.362C101.393 47.362 103.557 45.198 103.557 42.5286C103.557 39.8593 101.393 37.6953 98.724 37.6953C96.0546 37.6953 93.8906 39.8593 93.8906 42.5286C93.8906 45.198 96.0546 47.362 98.724 47.362Z" fill="white"/>
</g>
<defs>
<clipPath id="clip0_3_10">
<rect width="161.111" height="145" fill="white" transform="translate(0.445312)"/>
</clipPath>
</defs>
</svg>
