<svg width="131" height="142" viewBox="0 0 131 142" fill="none" xmlns="http://www.w3.org/2000/svg">
<g clip-path="url(#clip0_29_101237)">
<path d="M124.049 96.5173C124.049 121.401 98.1409 141.574 66.1818 141.574C34.2227 141.574 8.31445 121.401 8.31445 96.5173C8.31445 71.6333 34.2227 51.4609 66.1818 51.4609C98.1409 51.4609 124.049 71.6333 124.049 96.5173Z" fill="#AFAFAF" fill-opacity="0.3"/>
<path d="M40.9708 105.582C43.8665 101.895 49.2029 101.253 52.8898 104.149C56.5764 107.045 57.2179 112.381 54.3222 116.068L50.7566 120.608C47.8609 124.295 42.5245 124.936 38.8376 122.04C35.1507 119.145 34.5092 113.808 37.4052 110.122L40.9708 105.582Z" fill="#F49000"/>
<path d="M90.6334 105.582C87.7378 101.895 82.4013 101.253 78.7144 104.149C75.0275 107.045 74.3864 112.381 77.282 116.068L80.8477 120.608C83.7433 124.295 89.0797 124.936 92.7666 122.04C96.4536 119.145 97.0947 113.808 94.1991 110.122L90.6334 105.582Z" fill="#F49000"/>
<path d="M49.6302 3.12708C54.2351 4.76862 59.0594 5.86028 65.4749 5.86028C71.89 5.86028 76.7147 4.76862 81.3192 3.12708C85.5229 1.62856 89.5431 0.195312 94.4234 0.195312C110.786 0.195312 116.03 18.5505 115.821 24.5815V67.5327C115.821 109.446 81.7323 120.763 65.4749 121.182C49.2172 120.763 15.1291 109.446 15.1291 67.5327V24.5815C14.9193 18.5505 20.1636 0.195312 36.5261 0.195312C41.4064 0.195312 45.4266 1.62855 49.6302 3.12708Z" fill="#58CC02"/>
<path d="M0.169922 87.6199C0.169922 83.6342 11.2168 63.2485 16.7402 52.4375L26.0855 86.6775C24.7766 89.8448 20.1328 96.1799 12.0283 96.1799C1.89763 96.1799 0.169922 90.5648 0.169922 87.6199Z" fill="#58CC02"/>
<path d="M130.779 87.6199C130.779 83.6342 119.732 63.2485 114.209 52.4375L104.863 86.6775C106.172 89.8448 110.816 96.1799 118.921 96.1799C129.051 96.1799 130.779 90.5648 130.779 87.6199Z" fill="#58CC02"/>
<path d="M92.4956 35.7422C89.6637 35.7422 80.6108 57.9294 66.215 57.9294C52.016 57.9294 44.6133 36.411 40.1294 36.411C36.0388 36.411 37.0221 42.4297 37.2187 44.5931C35.7134 43.3535 33.5626 41.164 31.909 40.6391C30.2553 40.1142 29.1164 43.6482 29.1164 45.4968C29.1164 46.2441 29.195 46.6 29.7063 48.4879C28.0937 49.9826 20.1172 52.7359 20.1172 65.2043C20.1172 90.4954 33.4115 96.395 44.3067 96.395C53.0228 96.395 58.0329 90.5215 59.1342 87.5847H72.4689C73.6227 90.5607 78.5812 96.5131 89.1853 96.5131C106.727 96.5131 111.487 78.3414 111.487 65.2043C111.487 54.6948 104.125 49.1567 102.329 47.7014C102.512 47.3866 102.879 47.4004 102.879 44.9461C102.879 41.8781 101.345 39.6968 100.126 39.6968C98.9066 39.6968 97.3727 41.3283 95.6029 43.0199C95.6029 38.8505 95.3274 35.7422 92.4956 35.7422Z" fill="#89E219"/>
<path d="M61.0303 110.965C61.0303 109.714 52.2001 108.039 48.7783 108.039C45.5924 108.039 49.8793 113.487 54.9732 113.487C59.8108 113.487 61.0303 111.794 61.0303 110.965Z" fill="#89E219"/>
<path d="M70.5742 110.965C70.5742 109.714 79.4044 108.039 82.8262 108.039C86.0121 108.039 81.7248 113.487 76.6312 113.487C71.7934 113.487 70.5742 111.794 70.5742 110.965Z" fill="#89E219"/>
<path d="M61.6589 115.975C60.0505 115.695 59.2988 116.126 59.2988 117.039C59.2988 118.558 63.1733 119.352 65.9068 119.352C68.6404 119.352 72.2786 118.102 72.2786 117.039C72.2786 116.188 71.5363 115.91 71.0397 115.975C68.4045 116.323 63.0944 116.225 61.6589 115.975Z" fill="#89E219"/>
<path d="M73.4493 89.1669C73.4493 93.3278 70.0762 96.7009 65.9152 96.7009C61.7543 96.7009 58.3809 93.3278 58.3809 89.1669C58.3809 85.0059 61.7543 81.6328 65.9152 81.6328C70.0762 81.6328 73.4493 85.0059 73.4493 89.1669Z" fill="#F49000"/>
<path d="M75.7923 87.7689C75.7923 84.6785 71.0465 80.7422 65.9695 80.7422C60.0467 80.7422 56.4414 85.2672 56.4414 87.7689C56.4414 89.2774 63.4681 94.207 65.9695 94.207C68.4713 94.207 75.7923 88.5781 75.7923 87.7689Z" fill="#FFC200"/>
<path fill-rule="evenodd" clip-rule="evenodd" d="M65.6898 86.9952C65.2004 87.036 64.8209 87.178 64.7056 87.2358C63.6178 87.7799 62.2947 87.3388 61.7506 86.2507C61.2066 85.1626 61.6476 83.8394 62.7357 83.2954C63.8025 82.762 66.4789 81.9817 69.0233 83.3145C70.1008 83.879 70.5167 85.21 69.9525 86.2878C69.388 87.3652 68.0567 87.7811 66.9793 87.2166C66.6061 87.0216 66.1619 86.9562 65.6898 86.9952Z" fill="#FFDE00"/>
<path d="M55.5228 72.9629C55.5228 63.4134 48.3798 55.3359 38.5171 55.3359C31.2604 55.3359 27.0781 59.1114 27.0781 65.3394C27.0781 69.581 27.0782 68.403 27.0781 71.4982C27.0781 78.5667 31.1541 89.4974 42.6344 90.7784C52.0636 91.8304 55.5228 83.4451 55.5228 79.5194V72.9629Z" fill="white"/>
<path d="M52.1367 77.1515C52.1367 68.9603 49.167 65.8281 44.3316 65.8281C37.7069 65.8281 38.6588 71.5519 38.6588 74.799C38.6588 82.4285 43.163 84.8238 46.7039 84.8238C50.2444 84.8238 52.1367 82.6642 52.1367 77.1515Z" fill="#4B4B4B"/>
<path d="M43.4834 68.7642C43.4834 71.1063 41.5845 73.0049 39.2427 73.0049C36.9005 73.0049 35.002 71.1063 35.002 68.7642C35.002 66.4223 36.9005 64.5234 39.2427 64.5234C41.5845 64.5234 43.4834 66.4223 43.4834 68.7642Z" fill="white"/>
<path d="M76.082 72.9629C76.082 63.4134 83.2247 55.3359 93.0874 55.3359C100.344 55.3359 104.527 59.1114 104.527 65.3394C104.527 69.581 104.527 68.403 104.527 71.4982C104.527 78.5667 100.451 89.4974 88.9704 90.7784C79.5409 91.8304 76.082 83.4451 76.082 79.5194V72.9629Z" fill="white"/>
<path d="M79.4688 77.1515C79.4688 68.9603 82.4385 65.8281 87.2739 65.8281C93.8985 65.8281 92.9467 71.5519 92.9467 74.799C92.9467 82.4285 88.4425 84.8238 84.9016 84.8238C81.3607 84.8238 79.4688 82.6642 79.4688 77.1515Z" fill="#4B4B4B"/>
<path d="M76.8125 68.7642C76.8125 71.1063 78.7111 73.0049 81.0532 73.0049C83.3954 73.0049 85.294 71.1063 85.294 68.7642C85.294 66.4223 83.3954 64.5234 81.0532 64.5234C78.7111 64.5234 76.8125 66.4223 76.8125 68.7642Z" fill="white"/>
</g>
<defs>
<clipPath id="clip0_29_101237">
<rect width="130.992" height="141.672" fill="white" transform="translate(0.00390625)"/>
</clipPath>
</defs>
</svg>
