<svg width="130" height="131" viewBox="0 0 130 131" fill="none" xmlns="http://www.w3.org/2000/svg">
<g clip-path="url(#clip0_3_7959)">
<path d="M78.5107 16.7885C78.5107 15.1751 77.2027 13.8672 75.5893 13.8672C73.9759 13.8672 72.668 15.1751 72.668 16.7885C72.668 18.402 73.9759 19.7099 75.5893 19.7099C77.2027 19.7099 78.5107 18.402 78.5107 16.7885Z" fill="#F6C835"/>
<path d="M74.1294 20.4375H55.871C55.4676 20.4375 55.1406 20.7645 55.1406 21.1678V45.269C55.1406 45.6723 55.4676 45.9993 55.871 45.9993H74.1294C74.5327 45.9993 74.8597 45.6723 74.8597 45.269V21.1678C74.8597 20.7645 74.5327 20.4375 74.1294 20.4375Z" fill="#4B4B4B"/>
<path fill-rule="evenodd" clip-rule="evenodd" d="M65.9354 14.1851L88.88 21.941C89.2621 22.0702 89.4672 22.4847 89.338 22.8668C89.2651 23.0825 89.0957 23.2519 88.88 23.3248L65.9354 31.0807C65.3286 31.2858 64.6712 31.2858 64.0644 31.0807L41.1197 23.3248C40.7376 23.1956 40.5325 22.7811 40.6617 22.399C40.7346 22.1833 40.904 22.0139 41.1197 21.941L64.0644 14.1851C64.6712 13.98 65.3286 13.98 65.9354 14.1851Z" fill="#4B4B4B"/>
<path fill-rule="evenodd" clip-rule="evenodd" d="M75.4956 16.7891H77.1419C77.5072 16.7891 77.8162 17.0589 77.8656 17.4207L79.8574 32.0275C79.9119 32.4271 79.6321 32.7953 79.2325 32.8498C79.1997 32.8542 79.1668 32.8565 79.1338 32.8565H73.5038C73.1004 32.8565 72.7734 32.5295 72.7734 32.1261C72.7734 32.0931 72.7757 32.0602 72.7801 32.0275L74.772 17.4207C74.8213 17.0589 75.1304 16.7891 75.4956 16.7891Z" fill="#F6C835"/>
<path d="M19.976 95.0498L43.6578 52.2791C44.9272 49.9866 48.0587 49.5995 49.8422 51.5145C58.4117 60.7158 60.1511 74.616 53.8944 85.9159C47.6377 97.2158 34.9411 103.105 22.6056 100.706C20.0381 100.206 18.7067 97.3424 19.976 95.0498Z" fill="#58CC02"/>
<path d="M109.682 95.0498L86.0004 52.2791C84.731 49.9866 81.5995 49.5995 79.816 51.5146C71.2465 60.7158 69.5071 74.616 75.7638 85.9159C82.0205 97.2158 94.7171 103.105 107.053 100.706C109.62 100.206 110.952 97.3424 109.682 95.0498Z" fill="#58CC02"/>
<path fill-rule="evenodd" clip-rule="evenodd" d="M48.2754 110.893C48.2754 108.572 50.1563 106.692 52.4765 106.692H59.0462C61.3664 106.692 63.2473 108.572 63.2473 110.893C63.2473 113.213 61.3664 115.094 59.0462 115.094H52.4765C50.1563 115.094 48.2754 113.213 48.2754 110.893Z" fill="#F49000"/>
<path fill-rule="evenodd" clip-rule="evenodd" d="M66.4238 110.893C66.4238 108.572 68.3047 106.692 70.6249 106.692H77.1946C79.5148 106.692 81.3957 108.572 81.3957 110.893C81.3957 113.213 79.5148 115.094 77.1946 115.094H70.6249C68.3047 115.094 66.4238 113.213 66.4238 110.893Z" fill="#F49000"/>
<path fill-rule="evenodd" clip-rule="evenodd" d="M47.4074 34.4599C55.912 38.0566 61.7391 39.855 64.8888 39.855C68.0177 39.855 73.7522 38.0803 82.0922 34.5309C87.6649 32.1592 94.105 34.7542 96.4767 40.3268C97.0546 41.6847 97.3525 43.1453 97.3525 44.6211V78.4452C97.3525 96.4448 82.7609 111.036 64.7612 111.036C46.7615 111.036 32.1699 96.4448 32.1699 78.4452V44.5598C32.1699 38.5034 37.0796 33.5938 43.1359 33.5938C44.6034 33.5938 46.0559 33.8883 47.4074 34.4599Z" fill="#58CC02"/>
<path d="M49.2579 39.5544L59.124 50.271C59.6416 50.8454 59.4488 51.7563 58.7432 52.07C55.3534 53.5769 51.3088 52.7268 48.7575 49.8955C46.2062 47.0642 45.7829 42.9559 47.6371 39.7447C48.023 39.0763 48.7403 38.9799 49.2579 39.5544Z" fill="#89E219"/>
<path fill-rule="evenodd" clip-rule="evenodd" d="M57.8132 48.8865C61.3918 52.513 67.7024 52.513 71.6885 48.8865C75.6745 45.2599 71.0894 70.0068 71.0894 69.9432C71.0894 69.9127 68.9588 69.9041 64.6978 69.917C63.5555 69.9204 61.4976 69.9292 58.5241 69.9432C55.6644 53.4876 55.4274 46.4687 57.8132 48.8865Z" fill="#89E219"/>
<path d="M43.8346 42.1005L53.4913 52.8171C54.0089 53.3916 53.8161 54.3025 53.1106 54.6161C49.7207 56.123 45.6761 55.2729 43.1248 52.4416C40.5735 49.6103 40.1502 45.502 42.0044 42.2908C42.3903 41.6225 43.317 41.5261 43.8346 42.1005Z" fill="#89E219"/>
<path fill-rule="evenodd" clip-rule="evenodd" d="M48.4028 45.0859H48.6585C55.7877 45.0859 61.5672 50.8654 61.5672 57.9946V64.6407C61.5672 71.77 55.7877 77.5494 48.6585 77.5494H48.4028C41.2736 77.5494 35.4941 71.77 35.4941 64.6407V57.9946C35.4941 50.8654 41.2736 45.0859 48.4028 45.0859Z" fill="#89E219"/>
<path d="M80.1654 39.5459L70.5087 50.2625C69.9911 50.8369 70.1839 51.7478 70.8894 52.0614C74.2793 53.5684 78.3239 52.7182 80.8752 49.8869C83.4265 47.0556 83.8498 42.9474 81.9956 39.7362C81.6097 39.0678 80.683 38.9714 80.1654 39.5459Z" fill="#89E219"/>
<path d="M85.7884 42.1005L76.1318 52.8171C75.6142 53.3916 75.807 54.3025 76.5125 54.6161C79.9023 56.123 83.947 55.2729 86.4982 52.4416C89.0495 49.6103 89.4728 45.502 87.6187 42.2908C87.2328 41.6225 86.306 41.5261 85.7884 42.1005Z" fill="#89E219"/>
<path fill-rule="evenodd" clip-rule="evenodd" d="M80.8701 45.0859H81.1287C88.2572 45.0859 94.0359 50.8647 94.0359 57.9932V64.6422C94.0359 71.7707 88.2572 77.5494 81.1287 77.5494H80.9224C73.8335 77.5494 68.0712 71.8323 68.0155 64.7436L67.9633 58.0946C67.9073 50.9663 73.6405 45.1423 80.7687 45.0863C80.8025 45.0861 80.8363 45.0859 80.8701 45.0859Z" fill="#89E219"/>
<path fill-rule="evenodd" clip-rule="evenodd" d="M49.0423 49.6875C53.9834 49.6875 57.989 53.693 57.989 58.6341V64.0021C57.989 68.9432 53.9834 72.9487 49.0423 72.9487C44.1012 72.9487 40.0957 68.9432 40.0957 64.0021V58.6341C40.0957 53.693 44.1012 49.6875 49.0423 49.6875Z" fill="white"/>
<path fill-rule="evenodd" clip-rule="evenodd" d="M80.4818 49.6875C85.4229 49.6875 89.4284 53.693 89.4284 58.6341V64.0021C89.4284 68.9432 85.4229 72.9487 80.4818 72.9487C75.5407 72.9487 71.5352 68.9432 71.5352 64.0021V58.6341C71.5352 53.693 75.5407 49.6875 80.4818 49.6875Z" fill="white"/>
<path fill-rule="evenodd" clip-rule="evenodd" d="M50.4482 54.7969C52.7775 54.7969 54.6659 56.6852 54.6659 59.0146V63.6157C54.6659 65.9451 52.7775 67.8334 50.4482 67.8334C48.1188 67.8334 46.2305 65.9451 46.2305 63.6157V59.0146C46.2305 56.6852 48.1188 54.7969 50.4482 54.7969Z" fill="#4B4B4B"/>
<path d="M61.7127 57.6884C61.7127 48.4112 54.1921 40.8906 44.9149 40.8906C35.6378 40.8906 28.1172 48.4112 28.1172 57.6884C28.1172 66.9655 35.6378 74.4861 44.9149 74.4861C54.1921 74.4861 61.7127 66.9655 61.7127 57.6884Z" fill="white" fill-opacity="0.4" stroke="#4B4B4B" stroke-width="3.65169"/>
<path d="M65.3642 59.875H63.1732C61.1564 59.875 59.5215 61.5099 59.5215 63.5267C59.5215 65.5435 61.1564 67.1784 63.1732 67.1784H65.3642C67.381 67.1784 69.0159 65.5435 69.0159 63.5267C69.0159 61.5099 67.381 59.875 65.3642 59.875Z" fill="#4B4B4B"/>
<path d="M104.073 54.7656H101.152C100.345 54.7656 99.6914 55.4196 99.6914 56.2263V59.878C99.6914 60.6847 100.345 61.3387 101.152 61.3387H104.073C104.88 61.3387 105.534 60.6847 105.534 59.878V56.2263C105.534 55.4196 104.88 54.7656 104.073 54.7656Z" fill="#4B4B4B"/>
<path d="M28.1184 54.7656H25.197C24.3903 54.7656 23.7363 55.4196 23.7363 56.2263V59.878C23.7363 60.6847 24.3903 61.3387 25.197 61.3387H28.1184C28.9251 61.3387 29.579 60.6847 29.579 59.878V56.2263C29.579 55.4196 28.9251 54.7656 28.1184 54.7656Z" fill="#4B4B4B"/>
<path fill-rule="evenodd" clip-rule="evenodd" d="M64.8555 64.7734C67.3774 64.7734 69.4219 66.8179 69.4219 69.3398V70.7969C69.4219 73.3189 67.3774 75.3633 64.8555 75.3633C62.3335 75.3633 60.2891 73.3189 60.2891 70.7969V69.3398C60.2891 66.8179 62.3335 64.7734 64.8555 64.7734Z" fill="#F49000"/>
<path fill-rule="evenodd" clip-rule="evenodd" d="M79.0771 54.7969C81.4064 54.7969 83.2948 56.6852 83.2948 59.0146V63.6157C83.2948 65.9451 81.4064 67.8334 79.0771 67.8334C76.7477 67.8334 74.8594 65.9451 74.8594 63.6157V59.0146C74.8594 56.6852 76.7477 54.7969 79.0771 54.7969Z" fill="#4B4B4B"/>
<path d="M46.9254 60.0244C48.4386 60.0244 49.6652 58.7982 49.6652 57.2856C49.6652 55.7731 48.4386 54.5469 46.9254 54.5469C45.4122 54.5469 44.1855 55.7731 44.1855 57.2856C44.1855 58.7982 45.4122 60.0244 46.9254 60.0244Z" fill="white"/>
<path d="M75.0426 60.0244C76.5558 60.0244 77.7824 58.7982 77.7824 57.2856C77.7824 55.7731 76.5558 54.5469 75.0426 54.5469C73.5294 54.5469 72.3027 55.7731 72.3027 57.2856C72.3027 58.7982 73.5294 60.0244 75.0426 60.0244Z" fill="white"/>
<path d="M101.15 57.6884C101.15 48.4112 93.6296 40.8906 84.3524 40.8906C75.0753 40.8906 67.5547 48.4112 67.5547 57.6884C67.5547 66.9655 75.0753 74.4861 84.3524 74.4861C93.6296 74.4861 101.15 66.9655 101.15 57.6884Z" fill="white" fill-opacity="0.4" stroke="#4B4B4B" stroke-width="3.65169"/>
<path d="M58.5 69.6302C59.0413 66.833 61.7238 64.7734 64.8904 64.7734C67.8557 64.7734 70.4933 66.8817 71.0253 69.6302V69.8858C71.0253 70.0846 70.961 70.1596 70.7697 70.1414L64.8904 71.1639C64.7725 71.1647 64.7528 71.1647 64.6348 71.1639L58.7556 70.1414C58.5643 70.1596 58.5 70.0846 58.5 69.8858V69.6302Z" fill="#FFC200"/>
<path d="M63.6949 67.6666C63.2263 67.854 62.6944 67.6261 62.507 67.1575C62.3196 66.6889 62.5475 66.1571 63.0161 65.9696C64.1071 65.5332 65.2725 65.5332 66.4714 65.9563C66.9473 66.1243 67.197 66.6463 67.029 67.1222C66.861 67.5982 66.3391 67.8478 65.8631 67.6798C65.0704 67.4 64.3612 67.4 63.6949 67.6666Z" fill="#FFDE00"/>
<path d="M53.523 88.0342L61.7256 88.0313C62.1653 88.0311 62.4768 88.4368 62.3409 88.8326C61.6879 90.7338 59.7898 92.0473 57.6227 92.0481C55.4556 92.0489 53.5585 90.7368 52.907 88.8359C52.7714 88.4403 53.0833 88.0344 53.523 88.0342Z" fill="#89E219"/>
<path d="M67.8394 88.0342L76.042 88.0313C76.4817 88.0311 76.7933 88.4368 76.6573 88.8326C76.0044 90.7338 74.1062 92.0473 71.9391 92.0481C69.772 92.0489 67.8749 90.7368 67.2234 88.8359C67.0878 88.4403 67.3997 88.0344 67.8394 88.0342Z" fill="#89E219"/>
<path d="M60.6812 94.9326L68.8838 94.9297C69.3235 94.9295 69.6351 95.3353 69.4991 95.731C68.8462 97.6323 66.948 98.9458 64.7809 98.9465C62.6138 98.9473 60.7167 97.6352 60.0652 95.7344C59.9296 95.3388 60.2415 94.9328 60.6812 94.9326Z" fill="#89E219"/>
</g>
<defs>
<clipPath id="clip0_3_7959">
<rect width="130" height="130" fill="white" transform="translate(0 0.71875)"/>
</clipPath>
</defs>
</svg>
