<svg width="100" height="101" viewBox="0 0 100 101" fill="none" xmlns="http://www.w3.org/2000/svg">
<path fill-rule="evenodd" clip-rule="evenodd" d="M33.1113 88.6597C33.1113 86.3264 35.0002 84.4375 37.3335 84.4375H43.778C46.1113 84.4375 48.0002 86.3264 48.0002 88.6597C48.0002 90.9931 46.1113 92.8819 43.778 92.8819H37.3335C34.8891 92.7708 33.1113 90.8819 33.1113 88.6597Z" fill="#F49000"/>
<path fill-rule="evenodd" clip-rule="evenodd" d="M51.7773 88.6597C51.7773 86.3264 53.6662 84.4375 55.9996 84.4375H62.444C64.7773 84.4375 66.6662 86.3264 66.6662 88.6597C66.6662 90.9931 64.7773 92.8819 62.444 92.8819H55.9996C53.6662 92.7708 51.7773 90.8819 51.7773 88.6597Z" fill="#F49000"/>
<path d="M1.1108 61.9922L35.1108 26.4366C36.8886 24.5477 39.9997 24.9922 41.2219 27.2144C46.9997 38.3255 44.9997 52.2144 35.9997 61.5477C26.9997 70.8811 13.333 73.5477 2.1108 68.2144C-0.11142 67.1033 -0.666976 63.9922 1.1108 61.9922Z" fill="#58CC02"/>
<path d="M98.2226 62.6584C100 64.5473 99.5559 67.6584 97.2226 68.7695C86.1114 74.214 72.3337 71.6584 63.4448 62.3251C54.5559 52.9918 52.3337 39.1029 58.1114 27.9918C59.3337 25.6584 62.4448 25.3251 64.2226 27.214L98.2226 62.6584Z" fill="#58CC02"/>
<path fill-rule="evenodd" clip-rule="evenodd" d="M32.4449 8.88641C40.7782 12.442 46.556 14.2197 49.6671 14.2197C52.8893 14.2197 58.6671 12.442 67.2227 8.88641C72.8893 6.44197 79.2227 9.10863 81.556 14.6642C82.1115 15.9975 82.4449 17.442 82.4449 18.8864V52.2197C82.4449 70.2197 67.8893 84.7753 49.8893 84.7753C31.8893 84.7753 17.2227 70.2197 17.2227 52.2197V18.9975C17.2227 12.9975 22.1115 7.99752 28.2227 7.99752C29.6671 7.99752 31.1115 8.33086 32.4449 8.88641Z" fill="#58CC02"/>
<path d="M48.5555 31.6629L64.3333 14.1074C65.2222 13.1074 66.6667 13.3296 67.3333 14.4407C70.3333 19.6629 69.6667 26.4407 65.4444 31.1074C61.2222 35.774 54.6667 37.2185 49.1111 34.6629C48 34.1074 47.6667 32.6629 48.5555 31.6629Z" fill="#89E219"/>
<path d="M51.1127 31.6638C52.0016 32.6638 51.6683 34.1082 50.446 34.6638C44.8905 37.1082 38.2238 35.7749 34.1127 31.1082C30.0016 26.4415 29.2238 19.6638 32.2238 14.4416C32.8905 13.3304 34.3349 13.2193 35.2238 14.1082L51.1127 31.6638Z" fill="#89E219"/>
<path fill-rule="evenodd" clip-rule="evenodd" d="M44.1125 23.9991C47.4459 27.7769 52.0014 27.6658 55.4459 23.9991C57.6681 21.5547 58.4459 28.6658 57.7792 45.2214H42.0014C41.2236 28.5547 41.8903 21.4436 44.1125 23.9991Z" fill="#89E219"/>
<path fill-rule="evenodd" clip-rule="evenodd" d="M33.0009 18.5547C40.3342 18.5547 46.3342 24.5547 46.3342 31.888V42.6658C46.3342 49.9991 40.3342 55.9991 33.0009 55.9991C25.6675 55.9991 19.6675 49.9991 19.6675 42.6658V31.888C19.5564 24.5547 25.5564 18.5547 33.0009 18.5547Z" fill="#89E219"/>
<path fill-rule="evenodd" clip-rule="evenodd" d="M66.7782 18.5547C74.1115 18.5547 80.1115 24.5547 80.1115 31.888V42.6658C80.1115 49.9991 74.1115 55.9991 66.7782 55.9991C59.4449 55.9991 53.4449 49.9991 53.4449 42.6658V31.888C53.3338 24.5547 59.3338 18.5547 66.7782 18.5547Z" fill="#89E219"/>
<path fill-rule="evenodd" clip-rule="evenodd" d="M49.7795 41.6641C52.5573 41.6641 54.7795 43.8863 54.7795 46.553V46.6641C54.7795 49.3307 52.5573 51.553 49.8906 51.553H49.7795C47.1128 51.553 44.8906 49.3307 44.8906 46.6641V46.553C44.8906 43.8863 47.1128 41.6641 49.7795 41.6641Z" fill="#F49000"/>
<path d="M43.0017 46.2161C43.5573 43.105 46.3351 40.8828 49.6684 40.8828C53.0017 40.8828 55.7795 43.105 56.3351 46.2161V46.4384L49.5573 47.5495L42.8906 46.4384L43.0017 46.2161Z" fill="#FFC200"/>
<path d="M48.3346 43.7717C47.8902 43.7717 47.5569 43.5495 47.4457 43.105C47.3346 42.5495 47.5569 42.105 48.1124 41.8828C49.3346 41.5495 50.4457 41.5495 51.668 41.8828C52.2235 41.9939 52.4457 42.5495 52.3346 43.105C52.2235 43.6606 51.668 43.8828 51.1124 43.7717C50.2235 43.5495 49.4457 43.5495 48.668 43.7717C48.5569 43.7717 48.4457 43.7717 48.3346 43.7717Z" fill="#FFDE00"/>
<path fill-rule="evenodd" clip-rule="evenodd" d="M33.3335 23.7734C38.5557 23.7734 42.6669 27.9957 42.6669 33.1068V40.7734C42.6669 45.9957 38.4446 50.1068 33.3335 50.1068C28.2224 50.1068 24.0002 45.8845 24.0002 40.7734V33.1068C23.8891 27.9957 28.1113 23.7734 33.3335 23.7734Z" fill="white"/>
<path fill-rule="evenodd" clip-rule="evenodd" d="M34.6667 28.7734C37.7778 28.7734 40.3333 31.329 40.3333 34.4401V40.5512C40.3333 43.6623 37.7778 46.2179 34.6667 46.2179C31.5556 46.2179 29 43.6623 29 40.5512V34.4401C29 31.329 31.4444 28.7734 34.6667 28.7734Z" fill="#4B4B4B"/>
<path d="M31.0007 35.1068C32.4734 35.1068 33.6673 33.9129 33.6673 32.4401C33.6673 30.9673 32.4734 29.7734 31.0007 29.7734C29.5279 29.7734 28.334 30.9673 28.334 32.4401C28.334 33.9129 29.5279 35.1068 31.0007 35.1068Z" fill="white"/>
<path fill-rule="evenodd" clip-rule="evenodd" d="M66.1124 23.7734C71.3346 23.7734 75.4457 27.9957 75.4457 33.1068V40.7734C75.4457 45.9957 71.2235 50.1068 66.1124 50.1068C61.0013 50.1068 56.668 45.9957 56.668 40.8845V33.2179C56.668 27.9957 60.8902 23.7734 66.1124 23.7734Z" fill="white"/>
<path fill-rule="evenodd" clip-rule="evenodd" d="M64.7795 28.7734C67.8906 28.7734 70.4462 31.329 70.4462 34.4401V40.5512C70.4462 43.6623 67.8906 46.2179 64.7795 46.2179C61.6684 46.2179 59.1129 43.6623 59.1129 40.5512V34.4401C59.0018 31.329 61.5573 28.7734 64.7795 28.7734Z" fill="#4B4B4B"/>
<path d="M60.6686 35.1068C62.1414 35.1068 63.3353 33.9129 63.3353 32.4401C63.3353 30.9673 62.1414 29.7734 60.6686 29.7734C59.1959 29.7734 58.002 30.9673 58.002 32.4401C58.002 33.9129 59.1959 35.1068 60.6686 35.1068Z" fill="white"/>
<path d="M41.666 57.5521C41.8882 57.441 42.1105 57.441 42.3327 57.5521L61.8882 66.1076L84.1105 59.3299C84.666 59.2188 85.2216 59.6632 85.1105 60.2188C81.5549 76.6632 66.7771 88.6632 49.5549 88.6632C32.3327 88.6632 17.4438 76.6632 13.8882 60.2188C13.7771 59.7743 14.2216 59.2188 14.7771 59.3299L29.7771 61.5521L41.666 57.5521Z" fill="#CDF68F"/>
<path d="M76.9988 76.2198C70.5544 83.442 61.3322 88.1087 51.1099 88.5531C50.2211 86.7754 49.7766 84.7754 49.6655 82.6642C49.5544 74.8865 55.8877 68.442 63.7766 68.3309C69.5544 68.2198 74.5544 71.442 76.9988 76.2198Z" fill="#B2E762"/>
<path d="M43.2224 57.8854C43.5558 58.8854 43.778 59.9965 43.778 61.2188C43.8891 67.6632 38.6669 72.8854 32.2224 72.9965C25.778 73.1076 20.2224 67.9965 20.1113 61.6632C20.1113 61.1076 20.1113 60.6632 20.2224 60.1076L29.778 61.441L41.6669 57.5521C41.8891 57.441 42.1113 57.441 42.3335 57.5521L43.2224 57.8854Z" fill="#B2E762"/>
</svg>
