<svg width="246" height="162" viewBox="0 0 246 162" fill="none" xmlns="http://www.w3.org/2000/svg">
<g clip-path="url(#clip0_3_270)">
<path d="M215.719 0.523438H29.8801C24.527 0.523438 20.1875 4.86296 20.1875 10.216V142.282C20.1875 147.635 24.527 151.974 29.8801 151.974H215.719C221.072 151.974 225.411 147.635 225.411 142.282V10.216C225.411 4.86296 221.072 0.523438 215.719 0.523438Z" fill="#5C5B5B"/>
<path d="M204.621 13.2031H39.3654C36.6891 13.2031 34.5195 15.3727 34.5195 18.049V134.451C34.5195 137.128 36.6891 139.297 39.3654 139.297H204.621C207.297 139.297 209.466 137.128 209.466 134.451V18.049C209.466 15.3727 207.297 13.2031 204.621 13.2031Z" fill="white"/>
<path d="M184.249 34.1016H183.361C182.381 34.1016 181.586 34.8964 181.586 35.8769V38.54C181.586 39.5205 182.381 40.3153 183.361 40.3153H184.249C185.229 40.3153 186.024 39.5205 186.024 38.54V35.8769C186.024 34.8964 185.229 34.1016 184.249 34.1016Z" fill="#78C800"/>
<path d="M184.488 28.7098L189.25 34.4247C189.358 34.5543 189.427 34.712 189.448 34.8792C189.47 35.0465 189.444 35.2165 189.372 35.3693C189.3 35.522 189.187 35.6512 189.045 35.7418C188.902 35.8323 188.737 35.8804 188.568 35.8805H179.044C178.875 35.8804 178.71 35.8323 178.567 35.7418C178.425 35.6512 178.312 35.522 178.24 35.3693C178.168 35.2165 178.142 35.0465 178.164 34.8792C178.185 34.712 178.254 34.5543 178.362 34.4247L183.124 28.7098C183.208 28.6099 183.312 28.5295 183.43 28.4744C183.547 28.4192 183.676 28.3906 183.806 28.3906C183.936 28.3906 184.065 28.4192 184.182 28.4744C184.3 28.5295 184.404 28.6099 184.488 28.7098Z" fill="#78C800"/>
<path d="M184.249 72.2812H183.361C182.381 72.2812 181.586 71.4864 181.586 70.5059V67.8428C181.586 66.8623 182.381 66.0675 183.361 66.0675H184.249C185.229 66.0675 186.024 66.8623 186.024 67.8428V70.5059C186.024 71.4864 185.229 72.2812 184.249 72.2812Z" fill="#EA2B2B"/>
<path d="M184.488 77.673L189.25 71.9581C189.358 71.8285 189.427 71.6708 189.448 71.5036C189.47 71.3363 189.444 71.1663 189.372 71.0136C189.3 70.8608 189.187 70.7316 189.045 70.6411C188.902 70.5505 188.737 70.5024 188.568 70.5023H179.044C178.875 70.5024 178.71 70.5505 178.567 70.6411C178.425 70.7316 178.312 70.8608 178.24 71.0136C178.168 71.1663 178.142 71.3363 178.164 71.5036C178.185 71.6708 178.254 71.8285 178.362 71.9581L183.124 77.673C183.208 77.7729 183.312 77.8533 183.43 77.9084C183.547 77.9636 183.676 77.9922 183.806 77.9922C183.936 77.9922 184.065 77.9636 184.182 77.9084C184.3 77.8533 184.404 77.7729 184.488 77.673Z" fill="#EA2B2B"/>
<path d="M184.249 111.328H183.361C182.381 111.328 181.586 112.123 181.586 113.103V115.767C181.586 116.747 182.381 117.542 183.361 117.542H184.249C185.229 117.542 186.024 116.747 186.024 115.767V113.103C186.024 112.123 185.229 111.328 184.249 111.328Z" fill="#78C800"/>
<path d="M184.488 105.936L189.25 111.651C189.358 111.781 189.427 111.939 189.448 112.106C189.47 112.273 189.444 112.443 189.372 112.596C189.3 112.749 189.187 112.878 189.045 112.968C188.902 113.059 188.737 113.107 188.568 113.107H179.044C178.875 113.107 178.71 113.059 178.567 112.968C178.425 112.878 178.312 112.749 178.24 112.596C178.168 112.443 178.142 112.273 178.164 112.106C178.185 111.939 178.254 111.781 178.362 111.651L183.124 105.936C183.208 105.836 183.312 105.756 183.43 105.701C183.547 105.646 183.676 105.617 183.806 105.617C183.936 105.617 184.065 105.646 184.182 105.701C184.3 105.756 184.404 105.836 184.488 105.936Z" fill="#78C800"/>
<path d="M65.3449 26.1172C66.7689 26.1173 68.1561 26.5689 69.3072 27.4071C70.4583 28.2452 71.314 29.4268 71.7513 30.782L75.7264 43.0976C75.8734 43.5537 75.9106 44.0382 75.8348 44.5114C75.759 44.9846 75.5724 45.4331 75.2903 45.8205C75.0082 46.2079 74.6385 46.5231 74.2113 46.7404C73.7842 46.9577 73.3118 47.0709 72.8325 47.0709H57.6807C57.1992 47.0709 56.7246 46.9565 56.296 46.7372C55.8674 46.5178 55.497 46.1998 55.2153 45.8094C54.9336 45.4189 54.7487 44.9671 54.6757 44.4912C54.6028 44.0153 54.6439 43.5288 54.7957 43.0719L58.8942 30.7686C59.345 29.4143 60.2107 28.2362 61.3685 27.4013C62.5263 26.5664 63.9175 26.1172 65.3449 26.1172Z" fill="#2D2D2D"/>
<path d="M72.9413 39.45C74.3586 39.45 75.5076 38.2597 75.5076 36.7914C75.5076 35.3231 74.3586 34.1328 72.9413 34.1328C71.524 34.1328 70.375 35.3231 70.375 36.7914C70.375 38.2597 71.524 39.45 72.9413 39.45Z" fill="#8B4824"/>
<path d="M57.5741 39.45C58.9914 39.45 60.1404 38.2597 60.1404 36.7914C60.1404 35.3231 58.9914 34.1328 57.5741 34.1328C56.1568 34.1328 55.0078 35.3231 55.0078 36.7914C55.0078 38.2597 56.1568 39.45 57.5741 39.45Z" fill="#8B4824"/>
<path d="M65.2565 27.6719C67.0112 27.6719 68.6939 28.3689 69.9347 29.6096C71.1754 30.8503 71.8724 32.5331 71.8724 34.2878V38.6463C71.8724 39.5151 71.7013 40.3754 71.3688 41.1781C71.0363 41.9807 70.549 42.7101 69.9347 43.3244C69.3203 43.9388 68.591 44.4261 67.7883 44.7586C66.9856 45.091 66.1253 45.2622 65.2565 45.2622C64.3877 45.2622 63.5274 45.091 62.7247 44.7586C61.922 44.4261 61.1927 43.9388 60.5784 43.3244C59.964 42.7101 59.4767 41.9807 59.1442 41.1781C58.8117 40.3754 58.6406 39.5151 58.6406 38.6463V34.2878C58.6406 32.5331 59.3377 30.8503 60.5784 29.6096C61.8191 28.3689 63.5019 27.6719 65.2565 27.6719Z" fill="#A56644"/>
<path d="M67.1754 39.2068C66.1218 39.0808 65.3539 38.9263 64.879 38.747C64.405 38.5677 63.7534 38.1851 62.9314 37.601L62.6909 37.4297L62.4743 38.0484C62.2499 38.6898 62.285 39.3935 62.572 40.0094C62.8591 40.6252 63.3754 41.1046 64.0109 41.3452C64.3165 41.4609 64.6419 41.5153 64.9686 41.5052C65.2952 41.4951 65.6167 41.4207 65.9146 41.2863C66.2125 41.152 66.481 40.9602 66.7048 40.7221C66.9286 40.4839 67.1033 40.204 67.2189 39.8983L67.2402 39.8406L67.4506 39.2397L67.1754 39.2068Z" fill="white" stroke="white" stroke-width="0.443841" stroke-linecap="round" stroke-linejoin="round"/>
<path d="M69.137 27.3608L68.0895 29.7771C67.5282 31.0721 66.6005 32.1747 65.4206 32.9492C64.2407 33.7237 62.8602 34.1364 61.4488 34.1365H57.6406L58.7627 30.7775C59.2157 29.4204 60.0842 28.2401 61.245 27.4037C62.4059 26.5674 63.8004 26.1173 65.2312 26.1172C66.6666 26.1172 68.0221 26.5699 69.137 27.3608Z" fill="#2D2D2D"/>
<path d="M57.401 75.9991C56.2288 75.9991 55.2785 75.0147 55.2785 73.8003C55.2785 72.586 56.2288 71.6016 57.401 71.6016C58.5732 71.6016 59.5234 72.586 59.5234 73.8003C59.5234 75.0147 58.5732 75.9991 57.401 75.9991Z" fill="#CD7C60"/>
<path d="M65.0099 65.6563C63.1891 65.6563 61.4428 66.3796 60.1553 67.6671C58.8678 68.9546 58.1445 70.7008 58.1445 72.5216V76.1229C58.1445 77.0245 58.3221 77.9173 58.6672 78.7503C59.0122 79.5833 59.5179 80.3402 60.1555 80.9777C60.793 81.6153 61.5499 82.121 62.3829 82.466C63.2159 82.8111 64.1087 82.9887 65.0103 82.9887C65.9119 82.9887 66.8047 82.8111 67.6377 82.466C68.4707 82.121 69.2276 81.6153 69.8651 80.9777C70.5027 80.3402 71.0084 79.5833 71.3534 78.7503C71.6985 77.9173 71.8761 77.0245 71.8761 76.1229V72.5216C71.8761 71.6199 71.6985 70.7271 71.3534 69.8941C71.0083 69.0611 70.5025 68.3043 69.8649 67.6667C69.2274 67.0292 68.4704 66.5236 67.6374 66.1786C66.8043 65.8336 65.9115 65.6561 65.0099 65.6563Z" fill="#DB8E73"/>
<path d="M66.1301 74.7109H64.1328V75.746H66.1301V74.7109Z" fill="#B4654A"/>
<path d="M60.8871 72.576C60.8871 71.6107 61.6697 70.8281 62.635 70.8281C63.6003 70.8281 64.3828 71.6107 64.3828 72.576V74.5129C64.3828 75.4782 63.6003 76.2607 62.635 76.2607C61.6697 76.2607 60.8871 75.4782 60.8871 74.5129V72.576Z" fill="white"/>
<path d="M62.1383 72.8742C62.1383 72.4604 62.4737 72.125 62.8875 72.125C63.3013 72.125 63.6367 72.4604 63.6367 72.8742V74.2217C63.6367 74.6355 63.3013 74.9709 62.8875 74.9709C62.4737 74.9709 62.1383 74.6355 62.1383 74.2217V72.8742Z" fill="#4B4B4B"/>
<path d="M69.3785 72.576C69.3785 71.6107 68.596 70.8281 67.6307 70.8281C66.6653 70.8281 65.8828 71.6107 65.8828 72.576V74.5129C65.8828 75.4782 66.6653 76.2607 67.6307 76.2607C68.596 76.2607 69.3785 75.4782 69.3785 74.5129V72.576Z" fill="white"/>
<path d="M68.1273 72.8742C68.1273 72.4604 67.7919 72.125 67.3781 72.125C66.9643 72.125 66.6289 72.4604 66.6289 72.8742V74.2217C66.6289 74.6355 66.9643 74.9709 67.3781 74.9709C67.7919 74.9709 68.1273 74.6355 68.1273 74.2217V72.8742Z" fill="#4B4B4B"/>
<path d="M62.1363 79.6215C60.6195 79.6215 59.3898 78.3473 59.3898 76.7756C59.3898 75.2038 60.6195 73.9297 62.1363 73.9297C63.6532 73.9297 64.8828 75.2038 64.8828 76.7756C64.8828 78.3473 63.6532 79.6215 62.1363 79.6215Z" fill="#DB8E73"/>
<path d="M68.1285 79.6215C66.6117 79.6215 65.382 78.3473 65.382 76.7756C65.382 75.2038 66.6117 73.9297 68.1285 73.9297C69.6454 73.9297 70.875 75.2038 70.875 76.7756C70.875 78.3473 69.6454 79.6215 68.1285 79.6215Z" fill="#DB8E73"/>
<path d="M65.7562 75.8984V72.9992C65.7562 72.8005 65.6773 72.6099 65.5368 72.4694C65.3963 72.3289 65.2057 72.25 65.007 72.25C64.8083 72.25 64.6178 72.3289 64.4772 72.4694C64.3367 72.6099 64.2578 72.8005 64.2578 72.9992V75.8984C64.2578 76.0971 64.3367 76.2876 64.4772 76.4281C64.6178 76.5686 64.8083 76.6476 65.007 76.6476C65.2057 76.6476 65.3963 76.5686 65.5368 76.4281C65.6773 76.2876 65.7562 76.0971 65.7562 75.8984Z" fill="#B4654A"/>
<path d="M64.6718 77.0379H65.3491C65.9207 77.0379 66.3832 76.5755 66.3832 76.0047V76.0029C66.3832 75.4312 65.9207 74.9688 65.3491 74.9688H64.6709C64.1001 74.9688 63.6367 75.4312 63.6367 76.0029V76.0047C63.6367 76.5755 64.101 77.0379 64.6718 77.0379Z" fill="#B4654A"/>
<path d="M60.8165 65.6485C64.053 63.2926 68.5296 63.5465 71.6293 66.3391C74.73 69.1318 75.5955 73.6891 73.7944 77.3384C73.7587 77.4115 73.7064 77.4751 73.6416 77.5243C73.5769 77.5734 73.5015 77.6067 73.4215 77.6214C73.3415 77.636 73.2592 77.6317 73.1812 77.6088C73.1032 77.5859 73.0317 77.5449 72.9724 77.4893L60.7863 66.514C60.5227 66.2761 60.5378 65.8518 60.8165 65.6485Z" fill="#FFD900"/>
<path d="M65.1929 77.8876C64.4597 77.7962 63.9262 77.6861 63.5977 77.5627C63.2711 77.4394 62.8166 77.1775 62.2431 76.7763L62.0035 76.6094L61.841 77.071C61.6776 77.5366 61.7028 78.0477 61.9113 78.4949C62.1198 78.9421 62.4951 79.29 62.9568 79.4642C63.1799 79.5482 63.4174 79.5875 63.6557 79.5798C63.8941 79.5721 64.1285 79.5175 64.3457 79.4192C64.5629 79.3208 64.7586 79.1807 64.9217 79.0067C65.0847 78.8327 65.2118 78.6283 65.2959 78.4052L65.3101 78.367L65.4663 77.9214L65.1929 77.8876Z" fill="white" stroke="white" stroke-width="0.443841" stroke-linecap="round" stroke-linejoin="round"/>
<path d="M61.7207 70.1747C59.9986 69.746 58.7656 68.1517 58.7656 66.3009C58.7656 64.4501 59.9995 62.8558 61.7216 62.428C61.7568 62.4198 61.7933 62.4199 61.8285 62.428C61.8637 62.4362 61.8965 62.4522 61.9245 62.475C61.9525 62.4978 61.9749 62.5267 61.9901 62.5594C62.0052 62.5922 62.0127 62.628 62.0119 62.6641V69.9386C62.0119 70.0957 61.8698 70.2111 61.7216 70.1747H61.7207Z" fill="#FFD900"/>
<path d="M58.0299 75.9991C56.8577 75.9991 55.9075 75.0147 55.9075 73.8003C55.9075 72.586 56.8577 71.6016 58.0299 71.6016C59.2021 71.6016 60.1523 72.586 60.1523 73.8003C60.1523 75.0147 59.2021 75.9991 58.0299 75.9991Z" fill="#CD7C60"/>
<path d="M65.0099 65.6563C63.1891 65.6563 61.4428 66.3796 60.1553 67.6671C58.8678 68.9546 58.1445 70.7008 58.1445 72.5216V76.6404C58.1445 78.4613 58.8679 80.2077 60.1555 81.4952C61.4431 82.7828 63.1894 83.5062 65.0103 83.5062C66.8312 83.5062 68.5776 82.7828 69.8651 81.4952C71.1527 80.2077 71.8761 78.4613 71.8761 76.6404V72.5216C71.8761 71.6199 71.6985 70.7271 71.3534 69.8941C71.0083 69.0611 70.5025 68.3043 69.8649 67.6667C69.2274 67.0292 68.4704 66.5236 67.6374 66.1786C66.8043 65.8336 65.9115 65.6561 65.0099 65.6563Z" fill="#DB8E73"/>
<path d="M62.1363 79.6215C60.6195 79.6215 59.3898 78.3473 59.3898 76.7756C59.3898 75.2038 60.6195 73.9297 62.1363 73.9297C63.6532 73.9297 64.8828 75.2038 64.8828 76.7756C64.8828 78.3473 63.6532 79.6215 62.1363 79.6215Z" fill="#DB8E73"/>
<path d="M68.1285 79.6215C66.6117 79.6215 65.382 78.3473 65.382 76.7756C65.382 75.2038 66.6117 73.9297 68.1285 73.9297C69.6454 73.9297 70.875 75.2038 70.875 76.7756C70.875 78.3473 69.6454 79.6215 68.1285 79.6215Z" fill="#DB8E73"/>
<path d="M62.7617 78.25C63.0575 78.5611 63.4134 78.8088 63.8079 78.978C64.2024 79.1473 64.6271 79.2345 65.0564 79.2345C65.4856 79.2345 65.9104 79.1473 66.3048 78.978C66.6993 78.8088 67.0553 78.5611 67.351 78.25" stroke="#B4654A" stroke-width="1.29246" stroke-linecap="round"/>
<path d="M60.0904 64.9284C63.5426 62.4021 68.2988 62.6471 71.5788 65.6022C74.8588 68.5564 75.7553 73.4022 73.8211 77.2956C73.7835 77.3735 73.7282 77.4415 73.6596 77.4941C73.5911 77.5467 73.5111 77.5826 73.4262 77.5987C73.3412 77.6149 73.2537 77.6109 73.1706 77.587C73.0875 77.5632 73.0111 77.5203 72.9476 77.4616L60.054 65.848C59.9886 65.7894 59.9369 65.7169 59.9026 65.636C59.8684 65.555 59.8525 65.4675 59.8559 65.3797C59.8594 65.2918 59.8822 65.2058 59.9228 65.1278C59.9633 65.0498 60.0205 64.9817 60.0904 64.9284Z" fill="#FFD900"/>
<path d="M73.0546 115.169C74.4719 115.169 75.6209 113.978 75.6209 112.51C75.6209 111.042 74.4719 109.852 73.0546 109.852C71.6372 109.852 70.4883 111.042 70.4883 112.51C70.4883 113.978 71.6372 115.169 73.0546 115.169Z" fill="#A0563C"/>
<path d="M57.2147 115.169C58.632 115.169 59.781 113.978 59.781 112.51C59.781 111.042 58.632 109.852 57.2147 109.852C55.7974 109.852 54.6484 111.042 54.6484 112.51C54.6484 113.978 55.7974 115.169 57.2147 115.169Z" fill="#A0563C"/>
<path d="M59.9628 100.023H70.307C70.5786 100.023 70.8475 100.077 71.0985 100.181C71.3494 100.285 71.5774 100.437 71.7695 100.629C71.9615 100.821 72.1139 101.049 72.2178 101.3C72.3218 101.551 72.3753 101.82 72.3753 102.092V109.595H57.8945V102.092C57.8945 101.543 58.1124 101.017 58.5003 100.629C58.8882 100.241 59.4143 100.023 59.9628 100.023Z" fill="#3D3D3D"/>
<path d="M69.2728 105.453H60.997C60.5896 105.453 60.1862 105.533 59.8098 105.689C59.4334 105.845 59.0914 106.073 58.8033 106.361C58.5152 106.649 58.2866 106.991 58.1307 107.368C57.9748 107.744 57.8945 108.147 57.8945 108.555V114.125C57.8945 116.01 58.6435 117.818 59.9766 119.151C61.3097 120.484 63.1178 121.233 65.0031 121.233H65.2667C67.152 121.233 68.9601 120.484 70.2932 119.151C71.6263 117.818 72.3753 116.01 72.3753 114.125V108.555C72.3753 108.147 72.295 107.744 72.1391 107.368C71.9832 106.991 71.7546 106.649 71.4665 106.361C71.1784 106.073 70.8364 105.845 70.46 105.689C70.0836 105.533 69.6802 105.453 69.2728 105.453Z" fill="#C6775C"/>
<path d="M67.1747 115.261C66.121 115.135 65.3531 114.981 64.8782 114.801C64.4042 114.621 63.7526 114.239 62.9306 113.656L62.691 113.484L62.4744 114.102C62.2499 114.743 62.2849 115.447 62.5718 116.063C62.8586 116.679 63.3748 117.158 64.0101 117.399C64.3157 117.515 64.641 117.569 64.9677 117.559C65.2943 117.549 65.6157 117.475 65.9136 117.34C66.2115 117.206 66.48 117.015 66.7039 116.776C66.9277 116.538 67.1025 116.259 67.2181 115.953L67.2394 115.894L67.4498 115.293L67.1747 115.261Z" fill="white" stroke="white" stroke-width="0.443841" stroke-linecap="round" stroke-linejoin="round"/>
<path d="M2.11558 147.383H243.485C243.697 147.383 243.907 147.425 244.103 147.506C244.3 147.587 244.478 147.706 244.628 147.856C244.778 148.006 244.897 148.185 244.978 148.381C245.059 148.577 245.101 148.787 245.101 148.999V154.657C245.101 158.675 241.846 161.932 237.83 161.932H7.77011C3.75513 161.932 0.5 158.674 0.5 154.657V148.999C0.499884 148.787 0.541586 148.577 0.622724 148.381C0.703862 148.185 0.822847 148.006 0.972879 147.856C1.12291 147.706 1.30105 147.587 1.49712 147.506C1.69319 147.425 1.90334 147.383 2.11558 147.383Z" fill="#C1C9CB"/>
<path opacity="0.25" d="M272.129 -19.1562V115.292L43.9961 -19.1562H272.129Z" fill="white"/>
<path d="M98 40.7388L108.63 33.3746L119.259 41.3602L129.889 28.3281L140.518 37.8263L151.148 31.435" stroke="#FFC800" stroke-width="1.77536"/>
<path d="M107.465 36.7665C108.691 36.7665 109.684 35.773 109.684 34.5473C109.684 33.3217 108.691 32.3281 107.465 32.3281C106.24 32.3281 105.246 33.3217 105.246 34.5473C105.246 35.773 106.24 36.7665 107.465 36.7665Z" fill="white" stroke="#FFC800" stroke-width="1.77536"/>
<path d="M95.9262 42.9775C97.1519 42.9775 98.1454 41.9839 98.1454 40.7583C98.1454 39.5326 97.1519 38.5391 95.9262 38.5391C94.7006 38.5391 93.707 39.5326 93.707 40.7583C93.707 41.9839 94.7006 42.9775 95.9262 42.9775Z" fill="white" stroke="#FFC800" stroke-width="1.77536"/>
<path d="M118.118 43.8681C119.343 43.8681 120.337 42.8745 120.337 41.6489C120.337 40.4233 119.343 39.4297 118.118 39.4297C116.892 39.4297 115.898 40.4233 115.898 41.6489C115.898 42.8745 116.892 43.8681 118.118 43.8681Z" fill="white" stroke="#FFC800" stroke-width="1.77536"/>
<path d="M129.657 31.4384C130.882 31.4384 131.876 30.4448 131.876 29.2192C131.876 27.9936 130.882 27 129.657 27C128.431 27 127.438 27.9936 127.438 29.2192C127.438 30.4448 128.431 31.4384 129.657 31.4384Z" fill="white" stroke="#FFC800" stroke-width="1.77536"/>
<path d="M140.309 40.3134C141.535 40.3134 142.528 39.3198 142.528 38.0942C142.528 36.8686 141.535 35.875 140.309 35.875C139.083 35.875 138.09 36.8686 138.09 38.0942C138.09 39.3198 139.083 40.3134 140.309 40.3134Z" fill="white" stroke="#FFC800" stroke-width="1.77536"/>
<path d="M151.852 33.2118C153.078 33.2118 154.071 32.2183 154.071 30.9926C154.071 29.767 153.078 28.7734 151.852 28.7734C150.626 28.7734 149.633 29.767 149.633 30.9926C149.633 32.2183 150.626 33.2118 151.852 33.2118Z" fill="white" stroke="#FFC800" stroke-width="1.77536"/>
<path d="M98 114.418L108.63 107.054L119.259 115.04L129.889 102.008L140.518 111.506L151.148 105.115" stroke="#FFC800" stroke-width="1.77536"/>
<path d="M107.465 110.446C108.691 110.446 109.684 109.453 109.684 108.227C109.684 107.001 108.691 106.008 107.465 106.008C106.24 106.008 105.246 107.001 105.246 108.227C105.246 109.453 106.24 110.446 107.465 110.446Z" fill="white" stroke="#FFC800" stroke-width="1.77536"/>
<path d="M95.9262 116.657C97.1519 116.657 98.1454 115.664 98.1454 114.438C98.1454 113.212 97.1519 112.219 95.9262 112.219C94.7006 112.219 93.707 113.212 93.707 114.438C93.707 115.664 94.7006 116.657 95.9262 116.657Z" fill="white" stroke="#FFC800" stroke-width="1.77536"/>
<path d="M118.118 117.548C119.343 117.548 120.337 116.554 120.337 115.329C120.337 114.103 119.343 113.109 118.118 113.109C116.892 113.109 115.898 114.103 115.898 115.329C115.898 116.554 116.892 117.548 118.118 117.548Z" fill="white" stroke="#FFC800" stroke-width="1.77536"/>
<path d="M129.657 105.118C130.882 105.118 131.876 104.125 131.876 102.899C131.876 101.673 130.882 100.68 129.657 100.68C128.431 100.68 127.438 101.673 127.438 102.899C127.438 104.125 128.431 105.118 129.657 105.118Z" fill="white" stroke="#FFC800" stroke-width="1.77536"/>
<path d="M140.309 113.993C141.535 113.993 142.528 113 142.528 111.774C142.528 110.548 141.535 109.555 140.309 109.555C139.083 109.555 138.09 110.548 138.09 111.774C138.09 113 139.083 113.993 140.309 113.993Z" fill="white" stroke="#FFC800" stroke-width="1.77536"/>
<path d="M151.852 106.892C153.078 106.892 154.071 105.898 154.071 104.672C154.071 103.447 153.078 102.453 151.852 102.453C150.626 102.453 149.633 103.447 149.633 104.672C149.633 105.898 150.626 106.892 151.852 106.892Z" fill="white" stroke="#FFC800" stroke-width="1.77536"/>
<path d="M98 68.2656L108.63 70.6659L119.259 74.2131L129.889 70.0579L140.518 75.1176L151.148 77.6031" stroke="#FFC800" stroke-width="1.77536"/>
<path d="M107.465 72.2743C108.691 72.2743 109.684 71.2808 109.684 70.0551C109.684 68.8295 108.691 67.8359 107.465 67.8359C106.24 67.8359 105.246 68.8295 105.246 70.0551C105.246 71.2808 106.24 72.2743 107.465 72.2743Z" fill="white" stroke="#FFC800" stroke-width="1.77536"/>
<path d="M95.9262 68.7275C97.1519 68.7275 98.1454 67.7339 98.1454 66.5083C98.1454 65.2826 97.1519 64.2891 95.9262 64.2891C94.7006 64.2891 93.707 65.2826 93.707 66.5083C93.707 67.7339 94.7006 68.7275 95.9262 68.7275Z" fill="white" stroke="#FFC800" stroke-width="1.77536"/>
<path d="M118.118 76.7197C119.343 76.7197 120.337 75.7261 120.337 74.5005C120.337 73.2748 119.343 72.2812 118.118 72.2812C116.892 72.2812 115.898 73.2748 115.898 74.5005C115.898 75.7261 116.892 76.7197 118.118 76.7197Z" fill="white" stroke="#FFC800" stroke-width="1.77536"/>
<path d="M129.657 72.2743C130.882 72.2743 131.876 71.2808 131.876 70.0551C131.876 68.8295 130.882 67.8359 129.657 67.8359C128.431 67.8359 127.438 68.8295 127.438 70.0551C127.438 71.2808 128.431 72.2743 129.657 72.2743Z" fill="white" stroke="#FFC800" stroke-width="1.77536"/>
<path d="M140.309 77.6025C141.535 77.6025 142.528 76.6089 142.528 75.3833C142.528 74.1576 141.535 73.1641 140.309 73.1641C139.083 73.1641 138.09 74.1576 138.09 75.3833C138.09 76.6089 139.083 77.6025 140.309 77.6025Z" fill="white" stroke="#FFC800" stroke-width="1.77536"/>
<path d="M151.852 80.2665C153.078 80.2665 154.071 79.273 154.071 78.0473C154.071 76.8217 153.078 75.8281 151.852 75.8281C150.626 75.8281 149.633 76.8217 149.633 78.0473C149.633 79.273 150.626 80.2665 151.852 80.2665Z" fill="white" stroke="#FFC800" stroke-width="1.77536"/>
</g>
<defs>
<clipPath id="clip0_3_270">
<rect width="245" height="161.558" fill="white" transform="translate(0.5 0.375)"/>
</clipPath>
</defs>
</svg>
